<?xml version="1.0" encoding="UTF-8"?>
<svg id="Layer_1" data-name="Layer 1" xmlns="http://www.w3.org/2000/svg" version="1.1" viewBox="0 0 250 224.39671">
  <defs>
    <style>
      .cls-1 {
        fill: #000;
        stroke-width: 0px;
      }
    </style>
  </defs>
  <path id="path-01" class="cls-1" d="M248.77838,33.34099c-2.2678-6.53589-7.53953-11.66483-14.18034-13.70008-2.02301-.62072-4.16901-.95818-6.39368-.95818h-18.45892V6.89842c0-3.80474-3.09368-6.89842-6.89842-6.89842s-6.89842,3.09368-6.89842,6.89842v11.78431h-25.28565V6.89842c0-3.80474-3.09368-6.89842-6.89842-6.89842s-6.89842,3.09368-6.89842,6.89842v11.78431h-63.734V6.89842c0-3.80474-3.09368-6.89842-6.89842-6.89842s-6.89842,3.09368-6.89842,6.89842v11.78431h-25.28798V6.89842c0-3.80474-3.09368-6.89842-6.89842-6.89842s-6.89842,3.09368-6.89842,6.89842v11.78431h-18.45134c-.75419,0-1.49963.03847-2.23458.11365C8.57581,19.91192,0,29.19296,0,40.47662v162.12678c0,12.03609,9.75663,21.79331,21.79331,21.79331h206.41163c12.03609,0,21.79331-9.75721,21.79331-21.79331V66.76241h.00175v-26.28404c0-2.50327-.44354-4.89813-1.22162-7.13738ZM179.40779,199.36226c0,1.35276-1.09689,2.44907-2.44907,2.44907h-103.91396c-1.35276,0-2.44907-1.09631-2.44907-2.44907v-13.02808h108.81209v13.02808ZM179.40779,179.17233h-108.81209v-10.28177c.21507-.07169.45344-.14338.66851-.21507,4.12996-1.38423,6.46945-4.24944,8.18823-6.37387.54903-.64461,1.36092-1.67098,1.79046-1.86215.35786.19117,1.16975,1.19364,1.71878,1.86215,2.1728,2.67346,5.80094,7.11407,12.84332,7.11407,7.06686,0,10.69558-4.44061,12.8678-7.11407.52513-.66851,1.36092-1.67098,1.79046-1.86215.33455.19117,1.16975,1.21754,1.69488,1.86215,2.1728,2.67346,5.80152,7.11407,12.8439,7.11407,7.06627,0,10.69499-4.44061,12.86721-7.11407.52513-.66851,1.36092-1.67098,1.76657-1.86215.35844.19117,1.16975,1.19364,1.71878,1.86215,2.1728,2.67346,5.80152,7.11407,12.8439,7.11407s10.6711-4.44061,12.84332-7.11407c.54903-.64461,1.36092-1.67098,1.79046-1.86215.35844.19117,1.16975,1.19364,1.71878,1.86215,1.71936,2.10053,4.05885,4.98964,8.18881,6.37387.21448.07169.45344.14338.66793.21507v10.28177ZM183.39438,160.19003c0,1.2292-1.21229,2.09121-2.37679,1.70013-5.02869-1.6873-5.8126-8.58339-12.21619-8.58339-7.30757,0-7.30757,8.9529-14.60464,8.9529-7.29649,0-7.29649-8.9529-14.59298-8.9529-7.29707,0-7.29707,8.9529-14.59357,8.9529s-7.29649-8.9529-14.60464-8.9529c-7.29649,0-7.29649,8.9529-14.59298,8.9529-7.30815,0-7.30815-8.9529-14.60464-8.9529-6.41408,0-7.19858,6.89609-12.22726,8.58339-1.16508.39108-2.37738-.47093-2.37738-1.70013v-11.40605c0-7.84902,6.36338-14.21239,14.21298-14.21239h88.35464c7.85601,0,14.22347,6.36746,14.22347,14.21239v11.40605ZM96.52771,104.98229c-4.93893,0-7.21548-3.23589-6.68627-7.39033.66618-5.22568,6.68627-13.44072,6.68627-13.44072,0,0,6.02009,8.21504,6.68627,13.44072.52921,4.15444-1.74792,7.39033-6.68627,7.39033ZM102.89575,109.68576v17.71347h-12.72442v-17.71347h12.72442ZM124.99679,104.98229c-4.93893,0-7.21548-3.23589-6.68627-7.39033.6656-5.22568,6.68627-13.44072,6.68627-13.44072,0,0,6.02009,8.21504,6.68627,13.44072.52921,4.15444-1.74792,7.39033-6.68627,7.39033ZM131.35201,109.68576v17.71347h-12.70052v-17.71347h12.70052ZM153.46588,104.98229c-4.93893,0-7.21548-3.23589-6.68627-7.39033.6656-5.22568,6.68627-13.44072,6.68627-13.44072,0,0,6.02009,8.21504,6.68627,13.44072.52921,4.15444-1.74792,7.39033-6.68627,7.39033ZM159.83217,109.68576v17.71347h-12.72384v-17.71347h12.72384ZM242.83814,59.60055H7.16535v-19.12218c0-8.06933,6.56445-14.63378,14.63378-14.63378h18.45134v4.62362c0,3.80474,3.09368,6.89842,6.89842,6.89842s6.89842-3.09368,6.89842-6.89842v-4.62362h25.28798v4.62362c0,3.80474,3.09368,6.89842,6.89842,6.89842s6.89842-3.09368,6.89842-6.89842v-4.62362h63.734v4.62362c0,3.80474,3.09368,6.89842,6.89842,6.89842s6.89842-3.09368,6.89842-6.89842v-4.62362h25.28565v4.62362c0,3.80474,3.09368,6.89842,6.89842,6.89842s6.89842-3.09368,6.89842-6.89842v-4.62362h18.45892c8.06933,0,14.63378,6.56445,14.63378,14.63378v19.12218Z"/>
</svg>